<?xml version="1.0" encoding="UTF-8"?>
<svg width="100pt" height="100pt" version="1.1" viewBox="0 0 100 100" xmlns="http://www.w3.org/2000/svg">
 <path d="m89.828 5.7812h-79.656c-3.6641 0-6.6367 2.9648-6.6406 6.6289v51.18c0.003906 3.6641 2.9727 6.6328 6.6406 6.6406h29.707c-0.12109 5.8281-1.4297 14.539-8.2109 14.539h-3.7891c-2.6094 0-4.7305 2.1172-4.7305 4.7305v1.8789c0.007812 1.5703 1.2812 2.8398 2.8516 2.8398h48c1.5703 0 2.8438-1.2695 2.8516-2.8398v-1.8789c0-2.6133-2.1211-4.7305-4.7305-4.7305h-3.793c-6.7812 0-8.0898-8.7109-8.2109-14.539h29.711c3.668 0 6.6406-2.9727 6.6406-6.6406v-51.18c0-1.7617-0.69922-3.4492-1.9453-4.6914-1.2461-1.2422-2.9336-1.9414-4.6953-1.9375zm-29.059 76.219c0.57422 1.0469 1.3281 1.9844 2.2305 2.7695h-26c0.90234-0.78516 1.6562-1.7227 2.2305-2.7695 1.6016-2.8008 2.4609-6.7617 2.5508-11.801h16.438c0.089844 5.0703 0.95312 9.0312 2.5508 11.801zm29.23-23.531c-0.003906 0.10547-0.085938 0.1875-0.19141 0.19141h-79.637c-0.10547-0.003906-0.1875-0.085937-0.19141-0.19141v-46.059c0.007812-0.097656 0.089843-0.17578 0.19141-0.17969h79.656c0.10156 0.003906 0.18359 0.082031 0.19141 0.17969zm-47.09-9.7305v2.9102c0 1.5703-1.2734 2.8398-2.8398 2.8398h-19.281c-1.5703 0-2.8438-1.2695-2.8477-2.8398v-2.9102c0.003906-1.5703 1.2773-2.8438 2.8477-2.8477h19.281c1.5703 0.003906 2.8398 1.2773 2.8398 2.8477zm36.711-16.258-2.0586-0.17969h-0.003906c-0.52344-0.027343-0.98438-0.34766-1.1953-0.82812-0.21094-0.48047-0.13672-1.0391 0.19531-1.4414l1.3203-1.5898c0.49609-0.57422 0.49609-1.4258 0-2-0.64453-0.80078-1.375-1.5312-2.1797-2.1719-0.57422-0.49219-1.4219-0.49219-2 0l-1.5781 1.3281v0.003906c-0.39453 0.33203-0.94531 0.41797-1.4219 0.22266-0.48047-0.19531-0.80859-0.64062-0.85938-1.1523l-0.19141-2.0586v-0.003906c-0.066407-0.73438-0.64453-1.3203-1.3789-1.3984-1.0195-0.10938-2.0508-0.10938-3.0703 0-0.73438 0.074218-1.3086 0.66406-1.3711 1.3984l-0.17969 2.0586v0.003906c-0.042969 0.51172-0.37109 0.96094-0.84766 1.1602-0.47656 0.19922-1.0234 0.11719-1.4219-0.21094l-1.5898-1.3203c-0.57422-0.49219-1.4219-0.49219-2 0-0.80078 0.64844-1.5273 1.3828-2.168 2.1875-0.49219 0.57812-0.49219 1.4258 0 2l1.3281 1.5781v0.003906c0.33594 0.39453 0.42188 0.94531 0.22266 1.4258-0.19922 0.47656-0.64453 0.80859-1.1602 0.85547l-2.0508 0.19141v-0.003907c-0.70313 0.14453-1.2148 0.74609-1.2422 1.4609-0.10547 1.0195-0.10547 2.0508 0 3.0703 0.085938 0.73438 0.67578 1.3086 1.4102 1.3711l2.0586 0.17969h0.003906c0.51562 0.039062 0.96875 0.36328 1.1719 0.84375 0.19922 0.47656 0.11328 1.0273-0.22266 1.4258l-1.3203 1.5898c-0.49219 0.57422-0.49219 1.4219 0 2 0.64844 0.77344 1.3789 1.4727 2.1797 2.0898 0.57422 0.49219 1.4258 0.49219 2 0l1.5781-1.3281v-0.003907c0.39844-0.33203 0.94531-0.41797 1.4219-0.22266 0.48047 0.19531 0.8125 0.64062 0.85938 1.1562l0.14062 2.0273c0.0625 0.73828 0.64453 1.3203 1.3789 1.3906 1.0195 0.11328 2.0508 0.11328 3.0703 0 0.73438-0.074219 1.3125-0.66406 1.3711-1.3984l0.17969-2.0703c0.042969-0.51953 0.37109-0.96875 0.85156-1.1719 0.48047-0.19922 1.0312-0.11328 1.4297 0.22266l1.5898 1.3086c0.57422 0.49609 1.4258 0.49609 2 0 0.78516-0.64453 1.5-1.3711 2.1289-2.1719 0.49219-0.57422 0.49219-1.4219 0-2l-1.3281-1.5781c-0.33594-0.39453-0.42188-0.94141-0.22656-1.4219 0.19531-0.48047 0.64063-0.80859 1.1562-0.85938l2.0586-0.19141v0.003907c0.70312-0.085938 1.2578-0.64062 1.3398-1.3398 0.11328-1.0234 0.11328-2.0508 0-3.0703-0.074219-0.73047-0.65234-1.3047-1.3789-1.3711zm-12.742 8.8906c-2.3984 0-4.5586-1.4453-5.4766-3.6602-0.91797-2.2188-0.41016-4.7695 1.2852-6.4648 1.6953-1.6953 4.2461-2.2031 6.4609-1.2852 2.2148 0.91797 3.6602 3.082 3.6602 5.4805 0 1.5703-0.625 3.0781-1.7344 4.1914-1.1133 1.1133-2.6211 1.7383-4.1953 1.7383zm-36.449-0.26953c5 0 9.5078-3.0117 11.418-7.6328 1.9141-4.6172 0.85547-9.9336-2.6797-13.469-3.5312-3.5352-8.8477-4.5938-13.469-2.6797-4.6172 1.9141-7.6289 6.4219-7.6289 11.418 0.003907 6.8242 5.5352 12.355 12.359 12.363zm-0.10938-17c1.2812-0.003906 2.4414 0.76563 2.9336 1.9492 0.49609 1.1836 0.22656 2.5469-0.67969 3.457-0.90625 0.91016-2.2695 1.1836-3.4531 0.69141-1.1875-0.48828-1.9609-1.6445-1.9609-2.9297 0.015625-1.7344 1.4258-3.1328 3.1602-3.1406zm0 7.7812v-0.003906c3.0469 0.066406 5.793 1.8477 7.1016 4.6016-4.0312 3.6328-10.172 3.5781-14.133-0.12891 1.332-2.6797 4.043-4.3906 7.0312-4.4414z" fill-rule="evenodd"/>
</svg>
