<?xml version="1.0" encoding="UTF-8"?>
<svg width="100pt" height="100pt" version="1.1" viewBox="0 0 100 100" xmlns="http://www.w3.org/2000/svg">
 <path d="m86.762 41.469c0.48828 2.4766 2.7734 4.1719 5.2812 3.9297 2.5117-0.24609 4.4258-2.3555 4.4258-4.8789 0-2.5195-1.9141-4.6289-4.4258-4.875-2.5078-0.24609-4.793 1.4531-5.2812 3.9258h-9.1836c-0.12891-4.7812-1.3164-9.4727-3.4766-13.742h9.3984c0.375-0.011719 0.71094-0.23828 0.87109-0.57812l3.6914-8.5703h-0.003906c2.3203 0.48047 4.625-0.86719 5.3438-3.1211s-0.38281-4.6875-2.5547-5.6367c-2.168-0.94531-4.7031-0.10156-5.8672 1.957-1.168 2.0586-0.58984 4.668 1.3398 6.043l-3.4492 8h-9.8125c-4.8672-8.2852-13.137-14.008-22.605-15.645-9.4727-1.6406-19.18 0.97266-26.551 7.1406-7.3711 6.1641-11.652 15.262-11.711 24.871l-8.1914 15.93c-0.67578 1.2578-0.53125 2.7969 0.37109 3.9023 0.89453 1.1445 2.2852 1.7969 3.7383 1.75h4.1289v10.18c0.011719 5.043 4.0977 9.1289 9.1406 9.1406h2.9023c1.4492 0.16797 2.5664 1.3516 2.6484 2.8086l1.1211 7.5703c0.085938 0.45313 0.47656 0.78906 0.9375 0.80859h34.34c0.26562-0.003906 0.51562-0.10938 0.70312-0.30078 0.17188-0.19922 0.25781-0.46094 0.23828-0.72656l-1.4102-16.25c-0.35156-4 1.25-7.6719 4.7305-11 2.1758-2.1016 4.0547-4.4922 5.582-7.1016h9.6992l3.4492 8c-2.0039 1.3945-2.625 4.0742-1.4414 6.207 1.1875 2.1328 3.793 3.0195 6.0352 2.0547 2.2383-0.96484 3.3828-3.4688 2.6484-5.7969-0.73828-2.3242-3.1133-3.7148-5.5039-3.2148l-3.6914-8.5781h0.003906c-0.16016-0.34375-0.49609-0.56641-0.87109-0.58203h-9.3086c2.1094-4.2383 3.2695-8.8867 3.3867-13.621zm4.8086-3.9492c1.2148 0 2.3086 0.73047 2.7695 1.8516 0.46484 1.1211 0.21094 2.4141-0.64844 3.2695-0.85938 0.85938-2.1484 1.1172-3.2695 0.65234-1.1211-0.46484-1.8516-1.5586-1.8516-2.7734 0-1.6562 1.3438-3 3-3zm-5.2891-25.34c0-1.0859 0.65234-2.0625 1.6523-2.4805s2.1562-0.19531 2.9297 0.56641c0.76953 0.76562 1.0078 1.918 0.60156 2.9219-0.40625 1.0078-1.3789 1.6719-2.4648 1.6836-0.71875 0.003906-1.4062-0.27734-1.918-0.78125s-0.80078-1.1914-0.80078-1.9102zm2.7188 53.871c1.0898 0 2.0703 0.65625 2.4844 1.6602 0.41797 1.0039 0.1875 2.1602-0.58203 2.9297-0.76953 0.76953-1.9258 1-2.9336 0.58594-1.0039-0.41797-1.6602-1.3984-1.6602-2.4883 0.007812-1.4805 1.207-2.6836 2.6914-2.6875zm-16.91-11h-8.7617c-0.53125 0.68359-1.1055 1.332-1.7188 1.9492h9.332c-1.3242 2.0859-2.8906 4.0078-4.6719 5.7188-3.8594 3.7109-5.6914 8.0586-5.3008 12.559l1.3203 15.238-32.48 0.003906-1-6.7695c-0.39844-2.6602-2.2383-4.4492-4.5781-4.4492h-2.9023c-4 0-7.2422-3.2422-7.25-7.2422v-11.137c0.019531-0.26172-0.074219-0.51953-0.25391-0.71094-0.17969-0.1875-0.43359-0.29297-0.69531-0.28906h-5.0703c-0.85938 0.035156-1.6914-0.33594-2.2383-1-0.44922-0.52344-0.52734-1.2695-0.19141-1.8711l8.3711-16.051c0.066406-0.13672 0.10156-0.28906 0.10156-0.44141 0-8.9375 3.8867-17.434 10.641-23.281 6.7578-5.8516 15.723-8.4766 24.57-7.2031 8.8438 1.2773 16.699 6.332 21.527 13.855h-9.3516c0.61328 0.60156 1.1953 1.2383 1.7422 1.8984h8.7695c2.3047 4.2266 3.5781 8.9336 3.7188 13.742h-7.25v1.8984h7.2109c-0.12891 4.7617-1.3672 9.4258-3.6211 13.621zm-7.0898-19.109-3.1914-0.26953c-0.80078-0.066406-1.5039-0.57422-1.8086-1.3203-0.30859-0.74219-0.18359-1.5938 0.32812-2.2109l2-2.4609c0.71484-0.87109 0.71484-2.125 0-3-1-1.2344-2.1328-2.3594-3.3789-3.3516-0.87109-0.71094-2.125-0.71094-3 0l-2.3789 2.0703c-0.60937 0.53125-1.4609 0.67969-2.2109 0.38672-0.75-0.29297-1.2734-0.98438-1.3594-1.7852l-0.28906-3.1797c-0.074219-1.1523-0.96484-2.0859-2.1094-2.2188-1.582-0.16797-3.1797-0.16797-4.7617 0-1.1367 0.125-2.0273 1.0391-2.1211 2.1797l-0.26953 3.2188c-0.066407 0.80078-0.57031 1.4961-1.3086 1.8086-0.74219 0.3125-1.5977 0.17969-2.2109-0.33984l-2.4609-2c-0.87109-0.70703-2.125-0.70703-3 0-1.2344 1-2.3555 2.1328-3.3477 3.3711-0.71094 0.875-0.71094 2.125 0 3l2.0586 2.4414c0.51562 0.61328 0.64844 1.4609 0.34766 2.2031-0.30078 0.74219-0.98828 1.2578-1.7891 1.3359l-3.1914 0.30078h0.003906c-1.1367 0.097656-2.0469 0.99219-2.1602 2.1289-0.17188 1.582-0.17188 3.1797 0 4.7617 0.125 1.1367 1.0391 2.0234 2.1797 2.1172l3.1797 0.26953c0.80078 0.066406 1.5 0.57031 1.8125 1.3125 0.30859 0.73828 0.18359 1.5938-0.33203 2.2109l-2 2.4609v-0.003906c-0.71094 0.875-0.71094 2.1289 0 3 1.0039 1.2344 2.1367 2.3594 3.3789 3.3516 0.875 0.71094 2.125 0.71094 3 0l2.4414-2.0586c0.38672-0.33203 0.87891-0.51172 1.3906-0.51172 0.28125-0.003906 0.55859 0.050782 0.82031 0.16016 0.74219 0.30469 1.2578 1 1.3281 1.8008l0.28906 3.1797c0.10938 1.125 0.99609 2.0195 2.1211 2.1406 1.582 0.17188 3.1797 0.17188 4.7617 0 1.1328-0.12109 2.0234-1.0312 2.1172-2.1719l0.26953-3.1914c0.058593-0.80078 0.56641-1.5039 1.3125-1.8086 0.73828-0.30859 1.5898-0.17969 2.2109 0.33203l2.4609 2h-0.003906c0.875 0.71094 2.1289 0.71094 3 0 1.2344-1.0039 2.3594-2.1406 3.3516-3.3828 0.71094-0.87109 0.71094-2.125 0-3l-2.0703-2.4414v0.003906c-0.51562-0.61719-0.64844-1.4648-0.35156-2.2109 0.30859-0.74219 1.0039-1.25 1.8008-1.3203l3.1914-0.30078c1.1367-0.10547 2.043-1 2.1602-2.1406 0.16797-1.5781 0.16797-3.168 0-4.75-0.12109-1.1484-1.0547-2.0469-2.2109-2.1172zm-19.719 16c-4.6016-0.011718-8.7461-2.793-10.5-7.0469-1.7539-4.2539-0.77734-9.1445 2.4766-12.398 3.25-3.2539 8.1445-4.2305 12.398-2.4766 4.2539 1.7578 7.0312 5.8984 7.043 10.5-0.003907 6.2891-5.1016 11.387-11.391 11.391zm7.1484-15.461c0.23437 0.32812 0.32812 0.73828 0.25781 1.1328-0.066406 0.39844-0.28906 0.75391-0.61719 0.98828l-9.2383 6.5117-0.003906-0.003906c-0.25391 0.18359-0.5625 0.28125-0.87891 0.28125-0.09375 0.007813-0.1875 0.007813-0.27734 0-0.40625-0.070313-0.76953-0.30078-1-0.64062l-3-4.4688c-0.40625-0.69531-0.20312-1.582 0.46484-2.0312 0.66406-0.44531 1.5664-0.29688 2.0547 0.33984l2.1406 3.1797 8-5.6211h-0.003906c0.32422-0.24219 0.73047-0.34766 1.1289-0.28906 0.39844 0.054687 0.76172 0.26953 1.0039 0.58984z" fill-rule="evenodd"/>
</svg>
