<?xml version="1.0" encoding="UTF-8"?>
<svg width="100pt" height="100pt" version="1.1" viewBox="0 0 100 100" xmlns="http://www.w3.org/2000/svg">
 <path d="m23.34 60.238c-0.39844 0-0.73047 0.19922-0.89062 0.51172-0.089844 0.19922-0.12109 0.42969-0.03125 0.64062 0.078125 0.23047 0.25 0.41016 0.48047 0.51172l14.441 6.4414c0.5 0.21875 1.0898 0.019531 1.3203-0.44141 0.089844-0.19922 0.10156-0.42188 0.03125-0.62891-0.078125-0.23047-0.26172-0.41016-0.48828-0.51172l-14.441-6.4414c-0.12891-0.050781-0.26172-0.078124-0.42188-0.078124z"/>
 <path d="m41.82 58.238c0-0.25-0.10156-0.48047-0.28125-0.66016l-4.2188-4.2305c-0.17969-0.17969-0.42187-0.28125-0.67969-0.28125-0.26172 0-0.5 0.10156-0.67969 0.28125-0.17969 0.19141-0.28125 0.42969-0.28125 0.69141 0 0.26172 0.10156 0.48828 0.28125 0.67188l4.2188 4.2188c0.17969 0.19141 0.46875 0.26953 0.67187 0.28125 0.26172 0 0.5-0.10156 0.69141-0.28125 0.17969-0.19141 0.28125-0.42969 0.28125-0.69141z"/>
 <path d="m59.828 58.93 4.2188-4.2188c0.17969-0.17969 0.28125-0.42188 0.28125-0.67188s-0.10156-0.5-0.28125-0.69141c-0.17969-0.17969-0.42969-0.28125-0.67969-0.28125s-0.5 0.10156-0.67188 0.26953l-4.2305 4.2305c-0.17969 0.19141-0.28125 0.42188-0.28125 0.67188s0.10156 0.5 0.28125 0.69141c0.19141 0.17969 0.46094 0.28125 0.69141 0.28125 0.25 0 0.48828-0.10156 0.67188-0.28125z"/>
 <path d="m77.102 61.898c0.23047-0.10156 0.39844-0.28125 0.48047-0.51172 0.078125-0.21094 0.058594-0.44141-0.03125-0.64062-0.16016-0.30859-0.48828-0.51172-0.89062-0.51172-0.16016 0-0.28906 0.03125-0.42188 0.078125l-14.441 6.4414c-0.23047 0.10156-0.41016 0.28125-0.48828 0.51172-0.070313 0.21094-0.058594 0.42969 0.03125 0.64062 0.23047 0.44922 0.82812 0.64844 1.3203 0.42969l14.43-6.4414h0.011718z"/>
 <path d="m69.449 78.66c0-1.6992-1.3789-3.0781-3.0781-3.0781l-32.742-0.003906c-1.6992 0-3.0781 1.3789-3.0781 3.0781v3.0703h38.891v-3.0703z"/>
 <path d="m92.969 89.91h-85.949c-0.55859 0-1.0195 0.44922-1.0195 1.0195v2.0312c0 0.57812 0.46875 1.0508 1.0508 1.0508h85.898c0.57812 0 1.0508-0.46875 1.0508-1.0508v-2.0195c0-0.55859-0.46094-1.0312-1.0312-1.0312z"/>
 <path d="m30.551 83.77h38.891v4.0898h-38.891z"/>
 <path d="m45.91 69.449c0 2.25 1.8281 4.0898 4.0898 4.0898s4.0898-1.8398 4.0898-4.0898c0-1.6211-0.96094-3.1016-2.4609-3.7695-0.51172-0.21094-1.0703-0.32031-1.6289-0.32031s-1.1211 0.12109-1.6406 0.32812c-1.4883 0.66016-2.4492 2.1406-2.4492 3.7617z"/>
 <path d="m33.629 18.32c0 0.30078 0.14062 0.60156 0.39062 0.80078l8.8984 7.1289c0.17969 0.14844 0.41016 0.21875 0.64062 0.21875h12.891c0.23047 0 0.46094-0.070312 0.64062-0.21875l8.9102-7.1289c0.23828-0.19922 0.37891-0.48828 0.37891-0.80078v-6.1914h-32.75z"/>
 <path d="m92.949 6h-85.898c-0.57812 0-1.0508 0.46875-1.0508 1.0508v2.0195c0 0.55859 0.46094 1.0312 1.0312 1.0312h85.949c0.55859 0 1.0195-0.44922 1.0195-1.0195v-2.0312c0-0.57812-0.46875-1.0508-1.0508-1.0508z"/>
 <path d="m48.969 63.398c0.67969-0.12109 1.3711-0.12109 2.0508 0v-26.699h-2.0508z"/>
 <path d="m51.531 34.512c0.32031-0.19141 0.51953-0.51172 0.51953-0.87891v-5.1211h-4.1016v5.1211c0 0.37109 0.19922 0.69141 0.51953 0.87891 0.14844 0.089843 0.32031 0.14062 0.5 0.14062h2.0508c0.17969 0 0.35938-0.039063 0.5-0.14062z"/>
</svg>
