<?xml version="1.0" encoding="UTF-8"?>
<svg width="100pt" height="100pt" version="1.1" viewBox="0 0 100 100" xmlns="http://www.w3.org/2000/svg">
 <path d="m94.578 59.449c0.011719-4.2773-1.7734-8.3594-4.918-11.258 1.668-3.3867 1.8516-7.3086 0.51562-10.836-1.3398-3.5273-4.082-6.3398-7.5742-7.7656 0.81641-3.6445 0.035157-7.4648-2.1484-10.496s-5.5586-4.9844-9.2734-5.3633c-0.40234-5.0586-4.1875-9.1953-9.1875-10.047-5.0039-0.84766-9.9414 1.8047-11.992 6.4453-2.0508-4.6406-6.9883-7.293-11.992-6.4453-5 0.85156-8.7852 4.9883-9.1875 10.047-3.0781 0.30859-5.9492 1.7031-8.0898 3.9414-3.0312 3.1719-4.2812 7.6445-3.3398 11.93-3.4805 1.4336-6.2109 4.25-7.5391 7.7734-1.3242 3.5234-1.1328 7.4414 0.53906 10.816-3.7031 3.4414-5.4688 8.4844-4.7188 13.484 0.74609 5 3.9102 9.3047 8.457 11.516-0.92969 4.5156 0.40234 9.1992 3.5703 12.547 2.6094 2.7383 6.2188 4.2969 10 4.3203 0.69531 0.035156 1.3906 0.015625 2.082-0.058594 1.7812 3.9688 5.7383 6.5117 10.09 6.4883 4.3672-0.023437 8.3242-2.5898 10.129-6.5664 1.8047 3.9766 5.7617 6.5352 10.129 6.5469 4.3477 0.027344 8.3008-2.5078 10.09-6.4688 4.0234 0.58203 8.1016-0.61719 11.172-3.2773 3.0703-2.6641 4.832-6.5273 4.8281-10.594 0.003906-0.96484-0.089844-1.9297-0.27734-2.8789 2.5898-1.2578 4.7734-3.2188 6.3008-5.6602 1.5273-2.4375 2.3398-5.2617 2.3359-8.1406zm-45.531 26h0.003906c0.027344 2.4023-0.91797 4.7148-2.6211 6.4102-1.7305 1.7578-4.0938 2.7539-6.5586 2.7695-3.4531 0.007813-6.6133-1.9258-8.1797-5 2.3008-0.66406 4.3867-1.9141 6.0586-3.6289 0.19922-0.17188 0.31641-0.42188 0.32812-0.68359 0.007813-0.26562-0.089844-0.51953-0.27734-0.70703s-0.44141-0.28516-0.70703-0.27734c-0.26172 0.007813-0.51172 0.12891-0.68359 0.32812-2.3164 2.3164-5.4688 3.6016-8.7422 3.5664-3.2773-0.035156-6.3984-1.3828-8.668-3.7461-4.5352-4.7891-4.4492-12.312 0.19141-17 0.19922-0.17188 0.31641-0.42188 0.32812-0.68359 0.007813-0.26562-0.09375-0.51953-0.28125-0.70703-0.18359-0.1875-0.44141-0.28906-0.70312-0.27734-0.26562 0.007812-0.51172 0.12891-0.68359 0.32812-1.4766 1.4727-2.5977 3.2617-3.2812 5.2305-4.6602-2.4102-7.4922-7.3125-7.2461-12.551 0.24219-5.2422 3.5195-9.8594 8.3867-11.82 0.23437-0.089844 0.42187-0.27344 0.51953-0.50391 0.097656-0.23438 0.097656-0.49609 0-0.72656-0.09375-0.23047-0.27734-0.41797-0.50781-0.51562-0.23047-0.097656-0.49219-0.097656-0.72266-0.003906-1.1133 0.45703-2.168 1.043-3.1406 1.75-1.2852-2.8594-1.3672-6.1172-0.22266-9.0391 1.1406-2.9219 3.4102-5.2617 6.293-6.4922 0.65625 1.7383 1.6797 3.3164 3 4.6211 0.37891 0.32422 0.94141 0.30469 1.293-0.046875 0.35156-0.35156 0.375-0.91797 0.046875-1.293-4.3203-4.3359-4.3945-11.324-0.16797-15.75 2.0859-2.168 4.957-3.4062 7.9688-3.4336 3.0078-0.027344 5.9023 1.1562 8.0312 3.2852 0.17188 0.19922 0.41797 0.31641 0.68359 0.32813 0.26172 0.007812 0.51953-0.09375 0.70312-0.28125 0.1875-0.18359 0.28906-0.44141 0.28125-0.70313-0.011719-0.26562-0.12891-0.51172-0.32812-0.68359-2.3203-2.3359-5.4336-3.7031-8.7227-3.832 0.45703-4.8984 4.6953-8.5664 9.6133-8.3164 4.9141 0.25391 8.7539 4.3359 8.707 9.2578v20.117l-0.76172 0.070313h0.003906c-0.79297 0.082031-1.4141 0.71875-1.4727 1.5117l-0.19141 2.2109h0.003906c-0.054688 0.55078-0.40625 1.0273-0.91797 1.2344-0.51172 0.21094-1.0977 0.12109-1.5234-0.23438l-1.7109-1.4102c-0.60938-0.50781-1.4961-0.50781-2.1094 0l-0.48828 0.42188-3.7617-3.7617v-6.3711c1.2812-0.46094 2.0469-1.7734 1.8125-3.1172-0.23047-1.3398-1.3945-2.3203-2.7578-2.3203-1.3594 0-2.5234 0.98047-2.7578 2.3203-0.23438 1.3438 0.53125 2.6562 1.8125 3.1172v6.7617c0 0.25 0.09375 0.48828 0.26953 0.66797l4 4c-0.17188 0.19141-0.32812 0.39062-0.48828 0.58984-0.50781 0.61328-0.50781 1.5 0 2.1094l1.4297 1.6914c0.35937 0.42188 0.45703 1.0117 0.24609 1.5273-0.21094 0.51563-0.69141 0.87109-1.2461 0.92188l-2.2109 0.21094c-0.78906 0.0625-1.418 0.6875-1.4883 1.4805 0 0.21094 0 0.42969-0.058594 0.64062h-7.6719c-0.48047-1.2656-1.793-2.0039-3.125-1.7617-1.3281 0.24609-2.293 1.4023-2.293 2.7539 0 1.3516 0.96484 2.5117 2.293 2.7539 1.332 0.24609 2.6445-0.49609 3.125-1.7578h7.7812c0 0.25 0 0.51172 0.070312 0.76172 0.078126 0.78906 0.71484 1.4102 1.5078 1.4688l2.2109 0.19141c0.55078 0.050781 1.0273 0.40625 1.2344 0.91797 0.21094 0.51172 0.12109 1.0977-0.23438 1.5195l-1.4102 1.7109c-0.50781 0.60938-0.50781 1.5 0 2.1094l0.41016 0.48828-4 4v0.003906c-0.17578 0.17578-0.27344 0.41797-0.26953 0.66797v6.7617c-1.2812 0.45703-2.0469 1.7734-1.8125 3.1133 0.23047 1.3398 1.3945 2.3203 2.7578 2.3203 1.3594 0 2.5234-0.98047 2.7578-2.3203s-0.53125-2.6562-1.8125-3.1133v-6.3828l3.7617-3.7617c0.19141 0.17188 0.39062 0.32812 0.58984 0.48828l-0.003907 0.003907c0.61328 0.50781 1.5 0.50781 2.1094 0l1.6914-1.4297c0.42578-0.35938 1.0156-0.45312 1.5273-0.24609 0.51562 0.21094 0.87109 0.69141 0.92187 1.2461l0.21094 2.2109c0.066406 0.78906 0.69141 1.4219 1.4805 1.5l0.64062 0.050781zm-4.7383-35.449c0-2.3008 1.3867-4.375 3.5156-5.2578 2.125-0.87891 4.5703-0.39453 6.1992 1.2344 1.6289 1.6289 2.1133 4.0742 1.2344 6.1992-0.88281 2.1289-2.957 3.5156-5.2578 3.5156-3.1406 0-5.6914-2.5508-5.6914-5.6914zm41.102 21.371c-0.69531-1.9648-1.8203-3.7461-3.2891-5.2227-0.17188-0.19922-0.42188-0.31641-0.68359-0.32813-0.26562-0.007812-0.51953 0.09375-0.70703 0.28125-0.1875 0.18359-0.28906 0.44141-0.27734 0.70313 0.007813 0.26562 0.12891 0.51172 0.32812 0.68359 2.3867 2.2578 3.7578 5.3828 3.8047 8.668 0.046874 3.2852-1.2383 6.4453-3.5586 8.7695-2.3242 2.3242-5.4883 3.6055-8.7695 3.5586-3.2852-0.042969-6.4102-1.418-8.668-3.8047-0.16406-0.22266-0.41406-0.35938-0.69141-0.38281-0.27344-0.019531-0.54297 0.078125-0.73828 0.26953-0.19531 0.19531-0.30078 0.46484-0.28125 0.73828 0.015625 0.27344 0.15234 0.52734 0.37109 0.69531 1.6641 1.6758 3.7305 2.9023 6 3.5586-1.5586 3.0781-4.7227 5.0117-8.1719 5-2.4648-0.015625-4.8242-1.0117-6.5586-2.7695-1.6602-1.707-2.5703-4.0078-2.5195-6.3906v-20.137l0.76172-0.070313c0.78906-0.082031 1.4102-0.71875 1.4688-1.5117l0.19141-2.2109c0.050781-0.55078 0.40625-1.0273 0.91797-1.2344 0.51172-0.21094 1.0977-0.12109 1.5195 0.23438l1.7109 1.4102c0.60938 0.50781 1.5 0.50781 2.1094 0l0.48828-0.42188 3.7617 3.7617v6.3711c-1.2734 0.46094-2.0312 1.7695-1.7969 3.1055 0.23438 1.3359 1.3906 2.3086 2.7461 2.3086 1.3555 0 2.5156-0.97266 2.75-2.3086 0.23438-1.3359-0.52344-2.6445-1.8008-3.1055v-6.7617c-0.003906-0.25-0.10547-0.48828-0.27734-0.66797l-4-4c0.17188-0.19141 0.32812-0.39062 0.48828-0.58984 0.50781-0.61328 0.50781-1.5 0-2.1094l-1.4297-1.6914c-0.35938-0.42188-0.45312-1.0117-0.24609-1.5273 0.21094-0.51563 0.69141-0.87109 1.2461-0.92188l2.2109-0.21094c0.79297-0.0625 1.4258-0.6875 1.5-1.4805 0-0.21094 0-0.42969 0.050782-0.64062h7.6289c0.46094 1.2812 1.7773 2.043 3.1172 1.8086 1.3398-0.23438 2.3164-1.3984 2.3164-2.7578 0-1.3594-0.97656-2.5234-2.3164-2.7578-1.3398-0.23438-2.6562 0.52734-3.1172 1.8086h-7.7383c0-0.25 0-0.51172-0.070313-0.76172-0.082031-0.78906-0.71875-1.4102-1.5117-1.4688l-2.2109-0.19141v0.003906c-0.55078-0.054687-1.0273-0.40625-1.2344-0.92188-0.21094-0.51172-0.12109-1.0977 0.23438-1.5195l1.4219-1.7109c0.50391-0.61328 0.50391-1.4961 0-2.1094l-0.42188-0.48828 4-4c0.17578-0.18359 0.27344-0.42188 0.28125-0.67188v-6.8398c1.2812-0.46094 2.043-1.7773 1.8086-3.1172-0.23438-1.3398-1.3984-2.3164-2.7578-2.3164s-2.5234 0.97656-2.7578 2.3164c-0.23438 1.3398 0.52734 2.6562 1.8086 3.1172v6.3711l-3.7617 3.7617c-0.19141-0.17188-0.39062-0.32812-0.58984-0.48828v-0.003907c-0.60547-0.51172-1.4922-0.51172-2.1016 0l-1.6992 1.4297c-0.42188 0.35938-1.0117 0.45312-1.5273 0.24609-0.51562-0.21094-0.87109-0.69141-0.92188-1.2461l-0.21094-2.2109c-0.066406-0.78906-0.6875-1.4219-1.4805-1.5h-0.64062l0.003906-20.148c-0.050781-4.9219 3.793-9.0039 8.707-9.2578 4.9141-0.25 9.1562 3.418 9.6094 8.3164-3.2852 0.12891-6.4023 1.4961-8.7188 3.832-0.19922 0.17188-0.31641 0.41797-0.32812 0.68359-0.007812 0.26172 0.089844 0.51953 0.27734 0.70313 0.1875 0.1875 0.44531 0.28906 0.70703 0.28125 0.26562-0.011719 0.51172-0.12891 0.68359-0.32813 2.2305-2.2344 5.2969-3.4258 8.4492-3.2812 3.1523 0.14453 6.0977 1.6133 8.1133 4.0391 3.6641 4.4766 3.3594 10.992-0.70312 15.109-0.32422 0.37891-0.30469 0.94141 0.046875 1.293 0.35156 0.35547 0.91797 0.375 1.293 0.046875 1.3281-1.3047 2.3516-2.8867 3-4.6289 2.8984 1.2305 5.1758 3.5742 6.3203 6.5039 1.1445 2.9297 1.0586 6.1992-0.23828 9.0664-0.97266-0.70703-2.0273-1.293-3.1406-1.75-0.48438-0.19531-1.0352 0.035156-1.2305 0.51953-0.19531 0.48438 0.039063 1.0352 0.51953 1.2305 4.8633 1.9648 8.1367 6.5859 8.3789 11.824 0.23828 5.2422-2.5938 10.141-7.2578 12.547z" fill-rule="evenodd"/>
</svg>
