<?xml version="1.0" encoding="UTF-8"?>
<svg width="100pt" height="100pt" version="1.1" viewBox="0 0 100 100" xmlns="http://www.w3.org/2000/svg">
 <path d="m65.512 56.051v11.438c0 1.5664-1.2695 2.832-2.832 2.832h-25.359c-1.5625 0-2.832-1.2656-2.832-2.832v-11.438c0-1.5625 1.2695-2.832 2.832-2.832h25.359c0.75 0 1.4688 0.30078 2 0.83203 0.53125 0.52734 0.83203 1.25 0.83203 2zm-34.652 18.109h-16.918c-1.0195 0.003906-1.8516 0.82031-1.8711 1.8398v2h20.66v-2c-0.015625-1.0195-0.84766-1.8398-1.8711-1.8398zm36.41 19.352c-0.003906 0.49609 0.19531 0.97266 0.54297 1.3281 0.35156 0.35156 0.82812 0.55078 1.3281 0.55078h16.918c1.0352-0.007813 1.8711-0.84766 1.8711-1.8789v-2h-20.66zm0-3.8984 20.66-0.003906v-3.8906h-20.66zm0-5.7812 20.66-0.003906v-3.8867h-20.66zm18.789-9.6719h-16.918c-1.0234 0-1.8555 0.82031-1.8711 1.8398v2h20.66v-2c-0.019532-1.0195-0.85156-1.8359-1.8711-1.8398zm-74 19.352c0 1.0312 0.83594 1.8711 1.8711 1.8789h16.93c0.5 0 0.97656-0.19922 1.3281-0.55078 0.34766-0.35547 0.54688-0.83203 0.54297-1.3281v-2h-20.66zm0-3.8984 20.672-0.003906v-3.8906h-20.66zm0-5.7812 20.672-0.003906v-3.8867h-20.66zm22.559-1.6211h30.754v-1.8984l-30.742-0.003906zm61.852-56.723v4.4102c-0.027344 3.9102-2.6836 7.3086-6.4688 8.2812v16.461c2.1641 1.6055 3.0586 4.418 2.2109 6.9766-0.84375 2.5625-3.2344 4.293-5.9297 4.293h-6.5195c-0.14453 1.4766-1.3867 2.6055-2.8711 2.6094h-2.2188v3.75h-1.8984l-0.003907-22.48c-0.011719-1.5273-1.2422-2.7656-2.7695-2.7891h-40c-1.5508 0-2.8086 1.2578-2.8086 2.8086v22.461h-1.8984l-0.003907-3.75h-2.1797c-1.4844-0.003906-2.7266-1.1328-2.8711-2.6094h-6.5586c-2.6875-0.019531-5.0625-1.7539-5.8984-4.3086-0.83594-2.5586 0.058594-5.3594 2.2188-6.9609v-16.461c-3.7852-0.97266-6.4414-4.3711-6.4688-8.2812v-4.4102c-0.054688-1.0547 0.32812-2.0859 1.0547-2.8555 0.73047-0.76562 1.7422-1.1992 2.8008-1.1992 1.0547 0 2.0664 0.43359 2.7969 1.1992 0.72656 0.76953 1.1094 1.8008 1.0547 2.8555v4.4102c0.007813 0.46484 0.37891 0.83594 0.83984 0.83984h3.4727c0.46094-0.003906 0.83203-0.375 0.83984-0.83984v-4.4102c-0.054687-1.0547 0.32812-2.0859 1.0547-2.8555 0.73047-0.76562 1.7422-1.1992 2.8008-1.1992s2.0664 0.43359 2.7969 1.1992c0.73047 0.76953 1.1094 1.8008 1.0586 2.8555v4.4102c-0.023437 3.8984-2.6602 7.293-6.4297 8.2812v15.23h2.5703-0.003907c0.14453-1.4766 1.3867-2.6055 2.8711-2.6094h2.2188v-1c0-2.5859 2.0859-4.6875 4.6719-4.7109h15.359v-5.3711c-2.1211-0.16016-4.4688-0.42969-7.3516-0.80078l0.003907 0.003906c-1.9375-0.26562-3.3828-1.918-3.3906-3.8711v-2.1523h-2.3008c-0.76562 0-1.5-0.30859-2.0391-0.85156-0.54297-0.54297-0.84375-1.2812-0.83984-2.0469v-5.4219c-0.003906-0.76562 0.29688-1.5 0.83984-2.043 0.53906-0.53906 1.2734-0.84375 2.0391-0.84375h2.3008c0.03125-1.9336 1.4648-3.5508 3.3789-3.8125 3.6445-0.53516 7.3164-0.86719 11-1v-3.5078c-2.2109-0.48438-3.6992-2.5586-3.4531-4.8047 0.24219-2.25 2.1406-3.9531 4.4023-3.9531s4.1602 1.7031 4.4062 3.9531c0.24219 2.2461-1.2461 4.3203-3.457 4.8047v3.5195c3.6836 0.12891 7.3555 0.46484 11 1 1.918 0.25781 3.3594 1.875 3.3906 3.8086h2.2891c0.76953 0 1.5039 0.30469 2.0469 0.84766 0.53906 0.54297 0.84375 1.2773 0.84375 2.043v5.4102c0 0.76562-0.30469 1.5-0.84375 2.043-0.54297 0.54297-1.2773 0.84766-2.0469 0.84766h-2.1992v2.1484c0 1.957-1.4414 3.6133-3.3789 3.8828-2.8789 0.37109-5.2305 0.64062-7.3516 0.80078v5.3711l15.352-0.003906c2.5977 0 4.7031 2.1016 4.7109 4.6992v1h2.2188c1.4844 0.003907 2.7266 1.1328 2.8711 2.6094h2.5703v-15.219c-3.7891-0.97266-6.4453-4.3711-6.4727-8.2812v-4.4102c-0.050782-1.0547 0.32812-2.0859 1.0586-2.8555 0.73047-0.76562 1.7383-1.1992 2.7969-1.1992s2.0703 0.43359 2.8008 1.1992c0.72656 0.76953 1.1094 1.8008 1.0547 2.8555v4.4102c0.007813 0.46484 0.37891 0.83594 0.83984 0.83984h3.4727c0.46094-0.003906 0.83203-0.375 0.83984-0.83984v-4.4102c-0.054688-1.0547 0.32812-2.0859 1.0547-2.8555 0.73047-0.76562 1.7422-1.1992 2.7969-1.1992 1.0586 0 2.0703 0.43359 2.8008 1.1992 0.72656 0.76953 1.1094 1.8008 1.0547 2.8555zm-31.09 5.5117h2.293c0.26172 0 0.51953-0.10547 0.70703-0.29297s0.29297-0.44141 0.29297-0.70703v-5.4219c0-0.26172-0.10547-0.51953-0.29297-0.70703s-0.44531-0.29297-0.70703-0.29297h-2.293zm-30.758-7.4102h-2.3008c-0.55078 0-1 0.44922-1 1v5.4102c0 0.26562 0.10547 0.51953 0.29297 0.70703s0.44141 0.29297 0.70703 0.29297h2.3008zm-14.391 31.719h-6.5508c-2.4023 0-4.3516 1.9492-4.3516 4.3516s1.9492 4.3516 4.3516 4.3516h6.5508zm41.508-18.309c1.0039-0.13281 1.75-0.98828 1.7422-2v-13.25c0.007812-1.0117-0.73828-1.8672-1.7422-2-3.8867-0.59375-7.8086-0.92578-11.738-1-3.9297 0.074219-7.8516 0.40625-11.738 1-1.0039 0.13281-1.75 0.98828-1.7422 2v13.301c-0.007812 1.0078 0.73828 1.8672 1.7422 2 9.9766 1.2891 13.5 1.2891 23.477-0.050781zm24.582 18.309h-6.5508v8.6914h6.5508c2.4023 0 4.3516-1.9492 4.3516-4.3516 0-2.4023-1.9492-4.3477-4.3516-4.3477zm-24.859-30c0 1.2773-0.76953 2.4258-1.9453 2.9102-1.1758 0.48828-2.5312 0.21875-3.4336-0.67969-0.89844-0.90234-1.168-2.2578-0.68359-3.4336 0.48828-1.1797 1.6367-1.9453 2.9102-1.9453 1.7305 0 3.1367 1.3906 3.1523 3.1211zm-1.8984 0h-0.003906c0-0.50391-0.30469-0.96094-0.76953-1.1523-0.46875-0.19531-1.0039-0.085938-1.3633 0.26953-0.35547 0.35938-0.46484 0.89453-0.26953 1.3633 0.19141 0.46484 0.64844 0.76953 1.1523 0.76953 0.33984 0 0.66016-0.13281 0.89453-0.375 0.23828-0.24219 0.36328-0.56641 0.35547-0.90234zm-17.871 3.1133c-1.2773 0.003906-2.4297-0.76562-2.918-1.9414-0.49219-1.1797-0.22266-2.5352 0.67969-3.4375 0.90234-0.90234 2.2578-1.1719 3.4375-0.67969 1.1758 0.48828 1.9453 1.6406 1.9375 2.918-0.003906 1.7305-1.4062 3.1328-3.1367 3.1406zm0-1.8906c0.50391 0 0.96094-0.30469 1.1523-0.77344 0.19531-0.46484 0.085938-1.0039-0.26953-1.3633-0.35938-0.35547-0.89453-0.46094-1.3633-0.26953-0.46484 0.19531-0.76953 0.64844-0.76953 1.1562 0 0.33203 0.12891 0.64844 0.36328 0.88281 0.23437 0.23438 0.55469 0.36719 0.88672 0.36719zm16.617 4.5703c-0.25 0-0.49219 0.097657-0.66797 0.27734-0.17578 0.17969-0.27344 0.42188-0.26953 0.67188v1.5508h-14.699v-1.5508c0.027344-0.26953-0.0625-0.53516-0.24219-0.73438-0.17969-0.19922-0.4375-0.3125-0.70313-0.3125-0.26953 0-0.52734 0.11328-0.70703 0.3125-0.17969 0.19922-0.26562 0.46484-0.23828 0.73438v1.5508c-0.003906 0.51172 0.19922 1.0039 0.55859 1.3711 0.36328 0.36328 0.85547 0.56641 1.3711 0.56641h14.617c0.51562 0 1.0078-0.20312 1.3711-0.56641 0.35938-0.36719 0.5625-0.85938 0.5625-1.3711v-1.5508c0-0.25391-0.097657-0.49609-0.27734-0.67578s-0.42188-0.27734-0.67578-0.27344z" fill-rule="evenodd"/>
</svg>
